<svg width="48" height="48" viewBox="0 0 48 48" fill="none" xmlns="http://www.w3.org/2000/svg">
  <circle cx="24" cy="24" r="24" fill="#383A46"/>
  <path d="M24.659 31.424c-.277 0-.619-.203-1.024-.608-1.13-1.067-2.23-1.963-3.296-2.688a19.828 19.828 0 00-3.328-1.92 1.375 1.375 0 01-.48-.448c-.128-.213-.192-.405-.192-.576 0-.17.053-.277.16-.32 1.813-1.088 3.19-1.973 4.128-2.656.96-.683 2.005-1.557 3.136-2.624.405-.405.736-.608.992-.608.128 0 .192.107.192.32 0 .15-.053.31-.16.48-.854 1.301-1.621 2.304-2.304 3.008a25.535 25.535 0 01-2.432 2.176c-.15.107-.224.181-.224.224 0 .021.074.107.224.256.875.704 1.664 1.43 2.368 2.176.704.747 1.493 1.77 2.368 3.072.085.17.128.288.128.352 0 .085-.032.17-.096.256-.043.085-.096.128-.16.128zm6.752 0c-.277 0-.619-.203-1.024-.608-1.13-1.067-2.23-1.963-3.296-2.688a19.828 19.828 0 00-3.328-1.92 1.375 1.375 0 01-.48-.448c-.128-.213-.192-.405-.192-.576 0-.17.053-.277.16-.32 1.813-1.088 3.19-1.973 4.128-2.656.96-.683 2.005-1.557 3.136-2.624.405-.405.736-.608.992-.608.128 0 .192.107.192.32 0 .15-.054.31-.16.48-.854 1.301-1.622 2.304-2.304 3.008a25.535 25.535 0 01-2.432 2.176c-.15.107-.224.181-.224.224 0 .021.075.107.224.256.874.704 1.664 1.43 2.368 2.176.704.747 1.493 1.77 2.368 3.072.085.17.128.288.128.352 0 .085-.032.17-.096.256-.043.085-.096.128-.16.128z" fill="#FAFAFA"/>
</svg>
